<?xml version="1.0" encoding="utf-8"?><!-- Uploaded to: SVG Repo, www.svgrepo.com, Generator: SVG Repo Mixer Tools -->
<svg fill="#fff" width="35px" height="33px" viewBox="0 0 1024 1024" xmlns="http://www.w3.org/2000/svg"><path d="M829.44 911.36c45.245 0 81.92-36.675 81.92-81.92V194.56c0-45.245-36.675-81.92-81.92-81.92H194.56c-45.245 0-81.92 36.675-81.92 81.92v634.88c0 45.245 36.675 81.92 81.92 81.92h634.88zm0 40.96H194.56c-67.866 0-122.88-55.014-122.88-122.88V194.56c0-67.866 55.014-122.88 122.88-122.88h634.88c67.866 0 122.88 55.014 122.88 122.88v634.88c0 67.866-55.014 122.88-122.88 122.88z"/><path d="M420.625 521.331c15.903 21.466 24.597 47.329 24.597 74.542 0 69.715-57.122 126.3-127.693 126.3s-127.693-56.585-127.693-126.3c0-25.914 7.882-50.606 22.404-71.485L178.614 501c-19.256 27.685-29.738 60.524-29.738 94.874 0 92.424 75.547 167.26 168.653 167.26s168.653-74.836 168.653-167.26c0-36.073-11.562-70.466-32.645-98.924l-32.912 24.383z"/><path d="M435.765 546.934c5.667 9.789 18.196 13.13 27.985 7.463s13.13-18.196 7.463-27.985L350.647 318.151c-16.36-28.249-49.89-28.249-66.234.006L163.851 526.412c-5.667 9.789-2.325 22.318 7.463 27.985s22.318 2.325 27.985-7.463l118.232-204.23 118.232 204.23zm416.186-208.823l-.562.39c.188-.124.376-.254.562-.39zM644.102 474.662l30.242 19.781c9.095 5.949 11.96 17.967 6.526 27.379L580.146 696.288l167.682-110.135-30.248-19.79c-9.094-5.95-11.957-17.967-6.524-27.378l100.721-174.454-167.676 110.132zm-48.57 17.175c-12.345-8.075-12.363-26.159-.033-34.257l232.745-152.87c25.84-18.236 58.715 11.54 42.752 39.171L756.213 542.69l40.184 26.291c12.343 8.076 12.359 26.158.031 34.256L563.677 756.11c-25.838 18.213-58.71-11.542-42.747-39.175l114.782-198.817-40.181-26.281z"/></svg>