<?xml version="1.0" encoding="iso-8859-1"?>
<!-- Uploaded to: SVG Repo, www.svgrepo.com, Generator: SVG Repo Mixer Tools -->
<!DOCTYPE svg PUBLIC "-//W3C//DTD SVG 1.1//EN" "http://www.w3.org/Graphics/SVG/1.1/DTD/svg11.dtd">
<svg fill="#fff" version="1.1" id="Capa_1" xmlns="http://www.w3.org/2000/svg" xmlns:xlink="http://www.w3.org/1999/xlink" 
	 width="35px" height="33px" viewBox="0 0 463.158 463.158"
	 xml:space="preserve">
<g>
	<g>
		<path d="M272.189,386.894c-1.351-6.297,0.452-12.71,4.926-17.61c7.013-7.657,12.938-15.102,19.215-22.978
			c1.736-2.184,3.524-4.397,5.312-6.622c-0.345-8.15-0.665-16.306-0.965-24.455c-5.905-7.343-11.989-14.828-18.199-21.038
			c-0.909-0.909-1.722-1.895-2.463-2.986c-3.458-3.936-5.149-8.668-5.124-13.375c0.965,29.183,1.915,58.361,3.434,87.523
			c-47.114,1.255-94.23,1.392-141.346,0.138c2.442-86.772-9.486-172.951-10.433-259.637c46.019-1.424,92.048-2.376,138.088-2.861
			c0.005,0.459-0.041,0.883,0.015,1.374c6.378,57.5,8.323,115.234,10.228,172.991c0.147-4.804,2.103-9.541,5.886-13.329
			l17.539-17.54c-1.691-47.453-3.915-94.866-9.161-142.122c-0.061-0.556-0.213-1.051-0.335-1.572
			c7.165-0.045,14.33-0.071,21.495-0.106c1.437,43.208,1.777,86.435,3.479,129.572c2.655-1.47,5.545-2.369,8.557-2.462
			c1.051-0.183,2.112-0.277,3.168-0.277c4.683,0,9.085,1.889,12.665,5.192c-1.731-43.945-1.94-87.933-3.382-131.885
			c-0.071-2.107,33.636,5.111,37.079,7.388c11.837,7.815,13.995,22.1,15.097,35.249c2.89,34.472,1.635,70.152,0.762,105.351
			c0.975-0.909,1.95-1.809,3.057-2.834c0.843-0.782,2.382-2.691,3.737-4.382c4.261-5.297,9.755-12.051,16.931-14.858
			c-0.016-1.43-0.025-2.859-0.041-4.294c-0.183-19.553-0.635-39.156-0.233-58.706c0.224-10.831,1.057-22.356,0.411-33.391
			c-3.92-66.953-84.914-54.009-131.631-53.974c0.741,0-12.589-21.513-14.777-23.544c-6.591-6.121-14.401-10.191-23.044-12.507
			c-19.674-5.266-41.134-2.136-61.169-1.387c-28.787,1.077-51.369,8.922-57.432,40.484c-17.946,0.562-35.896,1.155-53.839,1.861
			c-21.652-1.823-45.831,3.194-60.367,20.67c-10.087,12.131-7.856,29.77-8.214,44.673c-0.536,22.109-1.046,44.208-1.104,66.324
			c-0.066,25.001,0.328,49.995,1.166,74.979c0.713,21.302-2.755,44.031,4.941,64.419c14.959,39.659,66.905,33.383,101.158,34.683
			c0,0.152-0.038,0.279-0.038,0.432c0.516,41.157,67.329,47.556,63.008,1.087c29.082,0.411,58.161,0.279,87.242-0.233
			c-0.091,17.473,12.771,30.711,29.793,32.021c5.108,0.396,9.679-0.152,13.726-1.488c-6.495-6.596-12.893-13.232-18.977-20.235
			C277.069,397.613,273.398,392.561,272.189,386.894z M158.339,67.02c15.531-1.425,31.141-2.055,46.74-1.737
			c9.288,0.188,19.464-1.706,28.599,0.366c5.241,1.183,17.891,13.065,19.876,13.045c-34.792,0.427-69.579,1.036-104.36,1.991
			C151.125,75.5,154.058,70.978,158.339,67.02z M45.054,361.52c-0.868-0.528-1.782-1.001-2.775-1.352
			c-1.209-0.421-1.874-0.675-4.052-1.889c-0.899-0.498-1.742-1.097-2.58-1.691c0.401,0.203-1.714-1.538-1.747-1.568
			c-2.219-2.088-3.748-4.215-5.385-7.119c-0.007-0.143,0.025-0.27,0.015-0.417c-4.936-75.327-5.014-150.707-1.93-226.109
			c7.945-8.485,17.57-13.068,28.536-14.19c5.08,84.716,9.996,169.432,11.872,254.295c0.01,0.437,0.104,0.817,0.15,1.233
			C59.791,362.321,52.422,361.977,45.054,361.52z M112.502,364.718c-7.066-0.254-14.134-0.482-21.195-0.792
			c0.125-0.771,0.208-1.574,0.188-2.442c-1.872-84.782-6.787-169.424-11.857-254.062c7.485-0.284,14.967-0.487,22.445-0.749
			C103.09,192.826,114.846,278.484,112.502,364.718z M145.636,396.729c-0.167,0.432-0.437,1.158-0.604,1.447
			c-0.016,0.036-0.016,0.041-0.031,0.066c-0.125,0.102-0.282,0.238-0.525,0.482c-0.031,0.03-0.036,0.035-0.063,0.065
			c-0.155,0.071-0.383,0.193-0.726,0.396c-0.163,0.092-0.213,0.137-0.328,0.208c-0.188,0.046-0.437,0.117-0.818,0.233
			c-0.561,0.178-1.143,0.249-1.721,0.371c-0.12-0.005-0.224-0.035-0.348-0.041c-0.145,0-1.825-0.142-2.312-0.137
			c-0.803-0.168-1.603-0.346-2.387-0.579c-0.084-0.025-0.099-0.025-0.168-0.046c-0.134-0.086-0.307-0.192-0.609-0.36
			c-0.21-0.137-0.348-0.229-0.477-0.31c-0.269-0.249-0.551-0.487-0.8-0.762c-0.048-0.046-0.059-0.051-0.094-0.086
			c-0.073-0.143-0.147-0.274-0.302-0.519c-0.198-0.335-0.363-0.681-0.541-1.03c-0.051-0.168-0.135-0.406-0.249-0.727
			c-0.271-0.838-0.432-1.706-0.599-2.569c0.152,0.406-0.084-1.93-0.165-2.966c4.669,0.138,9.343,0.138,14.018,0.244
			c0.198,1.792,0.249,3.574,0.162,5.372C145.875,395.526,145.75,396.156,145.636,396.729z"/>
		<path d="M458.231,378.139c-14.157-15.655-28.233-31.376-41.832-47.52l41.11-41.111c4.565-4.564,3.113-10.404-0.553-13.802
			c-0.33-0.559-0.706-1.122-1.168-1.665c-10.034-11.7-20.896-22.607-31.788-33.5c-1.94-1.939-3.9-2.752-5.835-2.752
			c-2.244,0-4.458,1.102-6.596,2.752c-5.348,4.129-10.197,11.791-13.695,15.046c-4.297,3.997-7.521,6.973-10.445,9.674
			c-5.571,5.129-9.994,9.171-18.159,16.768c-9.237-9.308-20.652-20.952-30.448-31.488c-2.401-2.585-4.737-5.124-6.885-7.521
			c-1.966-2.193-4.226-3.107-6.424-3.107c-0.711,0-1.422,0.091-2.107,0.273c-0.152-0.01-0.305-0.01-0.462-0.01
			c-2.194,0-4.464,0.833-6.475,2.844l-2.128,2.127l-15.539,15.544l-10.688,10.685c-4.397,4.397-3.225,9.993,0.157,13.436
			c0.416,0.691,0.914,1.377,1.564,2.026c3.504,3.509,6.891,7.312,10.222,11.243c6.845,8.079,13.441,16.706,20.205,24.633
			c1.604,1.884,3.214,3.728,4.85,5.515c-1.29,1.387-2.509,2.768-3.732,4.154c-6.851,7.713-12.893,15.366-19.017,23.033
			c-5.525,6.922-11.137,13.858-17.57,20.881c-4.052,4.428-2.996,9.887,0.137,13.355c1.036,1.152,2.311,2.092,3.702,2.686
			c1.722,2.011,3.565,3.9,5.332,5.86c5.353,5.926,10.842,11.72,16.463,17.393c1.772,1.787,3.514,3.6,5.296,5.387
			c2.006,2.006,4.261,2.85,6.449,2.85c1.564,0,3.082-0.427,4.459-1.163c1.284-0.473,2.544-1.28,3.701-2.544
			c10.521-11.543,21.389-22.729,32.337-33.85c4.22-4.281,8.414-8.587,12.664-12.848c2.438,2.93,4.967,5.778,7.439,8.678
			c10.689,12.543,21.592,24.902,32.621,37.161c1.965,2.184,4.22,3.098,6.413,3.098c1.849,0,3.646-0.646,5.2-1.722
			c1.609-0.289,3.214-0.965,4.712-2.234c10.847-9.176,17.459-15.563,28.239-24.806c4.986-4.271,3.56-10.034-0.279-13.416
			C459.287,379.484,458.83,378.799,458.231,378.139z M423.768,399.538c-8.39-9.359-16.682-18.799-24.872-28.325
			c-5.149-5.992-10.304-11.979-15.3-18.104c-0.92-1.122-1.915-1.914-2.945-2.447c-1.092-0.563-2.22-0.827-3.337-0.827
			c-0.889,0-1.771,0.162-2.625,0.451c-0.025,0-0.051,0-0.081,0c-2.199,0-4.459,0.808-6.475,2.823
			c-2.859,2.859-5.683,5.749-8.531,8.607c-8.521,8.572-16.95,17.225-25.303,25.949c-3.972,4.148-7.988,8.251-11.903,12.461
			c-0.335-0.34-0.645-0.706-0.98-1.046c-5.362-5.47-10.612-11.024-15.695-16.753c5.763-6.175,10.831-12.309,15.741-18.438
			c1.249-1.554,2.488-3.107,3.717-4.662c6.155-7.754,12.284-15.523,19.414-23.404c0.229-0.259,0.437-0.508,0.67-0.762
			c4.139-4.539,2.915-10.166-0.386-13.624c-0.355-0.624-0.798-1.244-1.331-1.838c-0.188-0.208-0.37-0.432-0.559-0.64
			c-8.784-9.902-17.179-21.435-26.085-31.778c-2.671-3.103-5.388-6.114-8.181-8.917l7.059-7.059l8.165-8.16
			c4.94,5.373,10.598,11.299,16.392,17.275c8.033,8.287,16.352,16.666,23.516,23.831c1.402,1.401,3.042,2.026,4.855,2.026
			c5.18,0,11.801-5.135,18.524-11.842c9.084-9.055,18.341-20.973,24.572-27.355c2.666-2.737,4.793-4.479,6.083-4.479
			c0.32,0,0.589,0.106,0.803,0.324c6.291,6.384,12.521,12.822,18.504,19.5l-25.202,25.202l-13.903,13.903
			c-0.843,0.843-1.427,1.741-1.884,2.65c-2.595,3.509-3.331,8.572,0.167,12.817c4.388,5.321,8.928,10.521,13.427,15.746
			c9.668,11.238,19.469,22.364,29.401,33.373C432.861,391.697,430.146,393.906,423.768,399.538z"/>
	</g>
</g>
</svg>