<?xml version="1.0" encoding="iso-8859-1"?>
<!-- Uploaded to: SVG Repo, www.svgrepo.com, Generator: SVG Repo Mixer Tools -->
<svg width="35px" height="33px"  version="1.1" id="Capa_1" xmlns="http://www.w3.org/2000/svg" xmlns:xlink="http://www.w3.org/1999/xlink" 
	 viewBox="0 0 307.25 307.25" xml:space="preserve">
<g>
	<g>
		<path style="fill:#fff;" d="M150.179,121.951c-58.095,6.701-73.83,55.767-74.472,57.85c-0.887,2.866,0.729,5.912,3.601,6.799
			c0.533,0.163,1.071,0.239,1.599,0.239c2.322,0,4.476-1.501,5.194-3.84c0.136-0.441,14.212-44.345,65.323-50.241
			c2.981-0.343,5.124-3.046,4.781-6.026C155.863,123.751,153.149,121.602,150.179,121.951z"/>
		<path style="fill:#fff;" d="M242.491,224.009h-19.967v-15.414h27.93c2.366,0,4.46-1.523,5.178-3.775
			c2.148-6.685,3.176-13.211,3.176-19.945c0-43.627-40.037-78.491-93.476-83.908l8.871-22.387
			c5.988-2.97,10.084-8.545,10.084-15.006c0-9.535-8.817-17.296-19.651-17.296h-27.658c-10.84,0-19.662,7.756-19.662,17.296
			c0,6.326,3.922,11.803,9.692,14.821l9.013,22.741c-50.975,6.065-92.959,42.544-92.959,83.74c0,6.701,1.023,13.576,2.943,19.874
			c0.696,2.284,2.801,3.845,5.2,3.845h24.367v15.414H58.928c-11.999,0-21.756,8.539-21.756,19.037v6.799
			c0,6.864,7.169,12.238,16.317,12.238h194.447c9.154,0,16.317-5.374,16.317-12.238v-6.799
			C264.247,232.554,254.49,224.009,242.491,224.009z M136.973,57.155h27.658c4.754,0,8.773,2.937,8.773,6.418
			c0,3.476-4.019,6.413-8.773,6.413h-27.658c-4.759,0-8.784-2.937-8.784-6.413C128.189,60.092,132.209,57.155,136.973,57.155z
			 M139.687,80.864h21.909l-7.691,19.407c-1.039-0.022-2.051-0.12-3.095-0.12c-1.148,0-2.279,0.114-3.421,0.147L139.687,80.864z
			 M54.419,192.365c-0.326-2.486-0.49-5.004-0.49-7.49c0-39.335,45.269-73.846,96.875-73.846c54.456,0,97.12,32.439,97.12,73.846
			c0,2.562-0.174,5.042-0.528,7.517c-0.424,2.964-3.486,5.325-6.489,5.325H60.815C57.813,197.717,54.816,195.345,54.419,192.365z
			 M86.444,208.595h125.202v15.414H86.444V208.595z M247.93,251.204H53.484c-3.383,0-5.26-1.316-5.439-1.36v-6.799
			c0-4.422,4.982-8.159,10.878-8.159h183.568c5.896,0,10.878,3.737,10.878,8.159l0.087,6.385
			C253.19,249.888,251.313,251.204,247.93,251.204z"/>
		<path style="fill:#fff;" d="M42.6,125.453c1.659,0,3.291-0.756,4.362-2.181c1.8-2.404,1.305-5.814-1.099-7.615L8.698,87.859
			c-2.41-1.8-5.814-1.305-7.615,1.099s-1.305,5.814,1.099,7.615l37.165,27.799C40.321,125.1,41.469,125.453,42.6,125.453z"/>
		<path style="fill:#fff;" d="M71.296,90.393c1.071,1.36,2.665,2.067,4.27,2.067c1.18,0,2.371-0.381,3.367-1.169
			c2.361-1.86,2.758-5.281,0.897-7.636L51.069,47.24c-1.86-2.361-5.292-2.758-7.636-0.897c-2.361,1.86-2.758,5.281-0.897,7.636
			L71.296,90.393z"/>
		<path style="fill:#fff;" d="M232.391,93.216c1.659,0,3.291-0.756,4.362-2.181l27.799-37.171c1.8-2.404,1.305-5.814-1.099-7.615
			c-2.41-1.8-5.814-1.3-7.609,1.099l-27.799,37.171c-1.8,2.404-1.305,5.814,1.099,7.615
			C230.117,92.862,231.259,93.216,232.391,93.216z"/>
		<path style="fill:#fff;" d="M306.079,88.598c-1.866-2.35-5.276-2.758-7.642-0.897l-36.415,28.767
			c-2.361,1.86-2.758,5.281-0.897,7.642c1.077,1.36,2.665,2.067,4.275,2.067c1.18,0,2.371-0.381,3.367-1.169l36.415-28.767
			C307.542,94.375,307.939,90.959,306.079,88.598z"/>
	</g>
</g>
</svg>